<svg width="16" height="17" viewBox="0 0 16 17" fill="none" xmlns="http://www.w3.org/2000/svg">
<g id="ArrowLineUpRight">
<path id="Vector" d="M14 13.6927C14 13.8254 13.9473 13.9525 13.8536 14.0463C13.7598 14.1401 13.6326 14.1927 13.5 14.1927H2.5C2.36739 14.1927 2.24021 14.1401 2.14645 14.0463C2.05268 13.9525 2 13.8254 2 13.6927C2 13.5601 2.05268 13.433 2.14645 13.3392C2.24021 13.2454 2.36739 13.1927 2.5 13.1927H13.5C13.6326 13.1927 13.7598 13.2454 13.8536 13.3392C13.9473 13.433 14 13.5601 14 13.6927ZM5 11.1927C5.06568 11.1928 5.13073 11.1799 5.19142 11.1548C5.25212 11.1297 5.30728 11.0929 5.35375 11.0465L11.5 4.89962V9.69275C11.5 9.82536 11.5527 9.95253 11.6464 10.0463C11.7402 10.1401 11.8674 10.1927 12 10.1927C12.1326 10.1927 12.2598 10.1401 12.3536 10.0463C12.4473 9.95253 12.5 9.82536 12.5 9.69275V3.69275C12.5 3.56014 12.4473 3.43296 12.3536 3.3392C12.2598 3.24543 12.1326 3.19275 12 3.19275H6C5.86739 3.19275 5.74021 3.24543 5.64645 3.3392C5.55268 3.43296 5.5 3.56014 5.5 3.69275C5.5 3.82536 5.55268 3.95253 5.64645 4.0463C5.74021 4.14007 5.86739 4.19275 6 4.19275H10.7931L4.64625 10.339C4.57624 10.4089 4.52856 10.4981 4.50924 10.5951C4.48991 10.6921 4.49981 10.7927 4.53769 10.8841C4.57556 10.9756 4.63971 11.0537 4.72201 11.1086C4.80431 11.1635 4.90105 11.1928 5 11.1927Z" fill="#D3D3D3"/>
</g>
</svg>
