<svg width="16" height="17" viewBox="0 0 16 17" fill="none" xmlns="http://www.w3.org/2000/svg">
<path d="M14 14.1927C14 14.3254 13.9473 14.4525 13.8536 14.5463C13.7598 14.6401 13.6326 14.6927 13.5 14.6927H2.5C2.36739 14.6927 2.24021 14.6401 2.14645 14.5463C2.05268 14.4525 2 14.3254 2 14.1927C2 14.0601 2.05268 13.933 2.14645 13.8392C2.24021 13.7454 2.36739 13.6927 2.5 13.6927H13.5C13.6326 13.6927 13.7598 13.7454 13.8536 13.8392C13.9473 13.933 14 14.0601 14 14.1927ZM5 11.6927C5.06568 11.6928 5.13073 11.6799 5.19142 11.6548C5.25212 11.6297 5.30728 11.5929 5.35375 11.5465L11.5 5.39962V10.1927C11.5 10.3254 11.5527 10.4525 11.6464 10.5463C11.7402 10.6401 11.8674 10.6927 12 10.6927C12.1326 10.6927 12.2598 10.6401 12.3536 10.5463C12.4473 10.4525 12.5 10.3254 12.5 10.1927V4.19275C12.5 4.06014 12.4473 3.93296 12.3536 3.8392C12.2598 3.74543 12.1326 3.69275 12 3.69275H6C5.86739 3.69275 5.74021 3.74543 5.64645 3.8392C5.55268 3.93296 5.5 4.06014 5.5 4.19275C5.5 4.32536 5.55268 4.45253 5.64645 4.5463C5.74021 4.64007 5.86739 4.69275 6 4.69275H10.7931L4.64625 10.839C4.57624 10.9089 4.52856 10.9981 4.50924 11.0951C4.48991 11.1921 4.49981 11.2927 4.53769 11.3841C4.57556 11.4756 4.63971 11.5537 4.72201 11.6086C4.80431 11.6635 4.90105 11.6928 5 11.6927Z" fill="#D3D3D3"/>
</svg>
